<?xml version="1.0" standalone="no"?>
<!DOCTYPE svg PUBLIC "-//W3C//DTD SVG 20010904//EN"
 "http://www.w3.org/TR/2001/REC-SVG-20010904/DTD/svg10.dtd">
<svg version="1.0" xmlns="http://www.w3.org/2000/svg"
 width="200.000000pt" height="200.000000pt" viewBox="0 0 200.000000 200.000000"
 preserveAspectRatio="xMidYMid meet">
<metadata>
Created by potrace 1.11, written by Peter Selinger 2001-2013
</metadata>
<g transform="translate(0.000000,200.000000) scale(0.100000,-0.100000)"
fill="#000000" stroke="none">
<path d="M832 1679 c-17 -6 -82 -87 -82 -102 0 -2 -34 -62 -75 -133 -41 -71
-75 -132 -75 -136 0 -3 21 -6 47 -5 l48 2 57 99 c32 55 71 122 87 148 l30 48
340 0 c277 0 342 -3 354 -14 19 -19 337 -570 337 -584 0 -16 -21 -55 -188
-342 l-148 -255 -343 -3 c-226 -1 -348 1 -356 8 -7 6 -49 74 -94 153 l-82 142
-50 -3 -49 -4 25 -41 c14 -23 60 -102 102 -175 41 -73 86 -141 99 -151 21 -17
50 -18 396 -17 271 1 379 4 394 13 17 10 127 189 272 447 13 22 44 76 69 119
25 43 46 90 46 105 1 17 -33 87 -95 192 -52 91 -106 183 -118 205 -84 150
-162 274 -177 281 -23 10 -744 13 -771 3z"/>
<path d="M1736 1668 c-9 -12 -16 -29 -16 -38 0 -51 69 -79 103 -42 35 38 8
102 -43 102 -18 0 -34 -8 -44 -22z m78 -4 c34 -33 6 -88 -43 -82 -36 4 -52 49
-26 78 22 24 48 26 69 4z"/>
<path d="M1759 1663 c0 -5 -3 -20 -5 -35 -2 -14 0 -29 6 -33 5 -3 10 2 10 12
1 17 2 17 15 -1 8 -11 15 -18 16 -15 7 46 6 65 -4 71 -15 10 -37 10 -38 1z
m31 -23 c0 -5 -2 -10 -4 -10 -3 0 -8 5 -11 10 -3 6 -1 10 4 10 6 0 11 -4 11
-10z"/>
<path d="M366 1236 c-54 -15 -78 -51 -78 -114 1 -65 14 -84 90 -134 65 -42 76
-61 70 -119 -3 -30 -7 -34 -35 -37 -34 -3 -39 4 -45 73 -3 26 -7 30 -30 29
-62 -3 -59 -1 -54 -54 6 -65 20 -89 61 -106 60 -25 140 -11 174 29 17 21 24
118 11 152 -12 32 -22 42 -82 83 -66 45 -78 60 -78 92 0 32 28 54 54 44 16 -6
18 -11 20 -54 1 -25 1 -25 66 -21 16 1 20 8 20 40 0 77 -76 122 -164 97z"/>
<path d="M90 1221 c-4 -9 -11 -32 -14 -51 -3 -19 -21 -116 -41 -215 -19 -99
-35 -181 -35 -182 0 -2 18 -3 40 -3 41 0 43 2 54 50 4 21 12 26 41 28 36 3 38
1 49 -50 6 -25 11 -28 46 -28 46 0 45 -3 26 100 -8 41 -17 87 -20 102 -30 165
-49 258 -55 259 -55 6 -83 3 -91 -10z m61 -163 c1 -39 6 -85 14 -115 5 -20 2
-23 -26 -23 -30 0 -31 1 -25 38 3 20 8 46 10 57 3 11 5 32 5 48 1 38 21 34 22
-5z"/>
<path d="M588 1232 c-17 -3 -18 -22 -18 -233 l0 -229 43 0 44 0 -1 105 -1 105
40 0 40 0 -2 -87 c-2 -119 0 -123 48 -123 l39 0 0 229 c0 159 -3 230 -11 233
-6 2 -26 2 -44 0 l-32 -4 0 -66 c-1 -118 1 -112 -40 -112 l-38 0 1 89 c1 89 1
89 -25 93 -14 2 -34 2 -43 0z"/>
<path d="M883 1230 c-17 -5 -19 -20 -18 -230 l0 -225 43 -3 42 -3 0 100 c0 56
3 101 8 102 4 0 15 2 24 4 37 7 50 -18 52 -101 1 -44 6 -85 10 -92 5 -8 36
-12 92 -12 77 0 84 2 85 20 1 11 3 25 4 30 1 6 3 14 4 18 0 5 17 9 36 10 36 1
38 -1 49 -50 6 -25 11 -28 46 -28 28 0 40 4 40 14 0 12 -8 58 -35 201 -3 17
-14 76 -24 132 -11 56 -22 106 -25 111 -3 5 -15 8 -28 6 -13 -1 -33 -3 -45 -3
-15 -1 -24 -9 -27 -23 -3 -13 -17 -84 -32 -158 -14 -74 -27 -142 -29 -150 -2
-8 -7 -36 -11 -62 -11 -76 -24 -56 -24 37 0 77 -2 88 -24 110 l-24 24 22 14
c18 12 21 25 22 83 2 81 -10 112 -44 121 -31 8 -164 10 -189 3z m142 -71 c8
-8 9 -95 1 -107 -4 -7 -23 -12 -42 -12 l-34 0 0 64 0 63 35 -2 c19 -1 37 -4
40 -6z m260 -149 c4 -41 9 -78 12 -82 2 -5 -10 -8 -28 -8 -28 0 -31 3 -25 23
3 12 9 53 12 90 4 37 10 64 15 60 4 -4 10 -42 14 -83z"/>
<path d="M1436 1230 c-11 -4 -14 -50 -14 -232 l1 -228 113 0 114 0 0 38 0 37
-70 -1 -71 -1 3 71 3 70 60 1 c59 0 60 1 63 29 5 37 -6 43 -73 41 l-55 -2 0
54 c0 48 2 53 23 54 120 4 112 1 113 37 0 17 -2 32 -5 33 -24 4 -194 3 -205
-1z"/>
</g>
</svg>
